<?xml version="1.0" encoding="UTF-8" standalone="no"?>
<svg
   xmlns:dc="http://purl.org/dc/elements/1.1/"
   xmlns:cc="http://creativecommons.org/ns#"
   xmlns:rdf="http://www.w3.org/1999/02/22-rdf-syntax-ns#"
   xmlns:svg="http://www.w3.org/2000/svg"
   xmlns="http://www.w3.org/2000/svg"
   viewBox="0 0 1024.5468 180.12"
   height="180.12"
   width="1024.5468"
   xml:space="preserve"
   id="svg2"
   version="1.1"><metadata
     id="metadata8"><rdf:RDF><cc:Work
         rdf:about=""><dc:format>image/svg+xml</dc:format><dc:type
           rdf:resource="http://purl.org/dc/dcmitype/StillImage" /><dc:title></dc:title></cc:Work></rdf:RDF></metadata><defs
     id="defs6" /><g
     transform="matrix(1.3333333,0,0,-1.3333333,0,180.12)"
     id="g10"><g
       transform="scale(0.1)"
       id="g12"><path
         id="path14"
         style="fill:#ffffff;fill-opacity:1;fill-rule:nonzero;stroke:none"
         d="m 1736.54,812.82 c 4.26,1.106 9.71,3.086 16.34,5.93 l -35.33,33.602 37.47,39.121 35.47,-33.407 c 5.52,11.368 9.39,21.309 11.6,29.832 3.47,12.786 5.2,27.696 5.2,44.747 0,39.14 -8.01,69.405 -24.03,90.795 -16.03,21.38 -39.43,32.08 -70.21,32.08 -28.88,0 -51.93,-10.27 -69.14,-30.79 -17.2,-20.52 -25.81,-51.226 -25.81,-92.105 0,-47.832 12.32,-82.09 36.96,-102.762 15.94,-13.418 35.05,-20.129 57.31,-20.129 8.37,0 16.43,1.028 24.17,3.086 z m 132.31,46.875 c -6.13,-20.007 -15.18,-36.64 -27.13,-49.871 l 40.06,-37.734 -38.02,-39.68 -41.92,39.778 c -12.8,-7.766 -23.86,-13.235 -33.18,-16.407 -15.64,-5.226 -34.37,-7.843 -56.17,-7.843 -45.5,0 -83.1,13.574 -112.81,40.722 -36.02,32.676 -54.03,80.664 -54.03,143.965 0,63.77 18.47,111.995 55.41,144.665 30.14,26.68 67.63,40.02 112.47,40.02 45.14,0 83.02,-14.13 113.65,-42.38 35.36,-32.68 53.04,-78.379 53.04,-137.098 0,-31.094 -3.79,-57.141 -11.37,-78.137" /><path
         id="path16"
         style="fill:#ffffff;fill-opacity:1;fill-rule:nonzero;stroke:none"
         d="M 1997.66,1015.73 V 860.176 c 0,-14.688 1.73,-25.735 5.19,-33.156 6.13,-13.106 18.14,-19.649 36.04,-19.649 22.93,0 38.64,9.309 47.13,27.942 4.39,10.097 6.59,23.437 6.59,40.007 v 140.41 h 68.43 V 757.645 h -65.58 v 36.464 c -0.63,-0.789 -2.21,-3.164 -4.73,-7.097 -2.52,-3.957 -5.5,-7.422 -8.97,-10.422 -10.55,-9.473 -20.74,-15.945 -30.58,-19.414 -9.84,-3.477 -21.36,-5.215 -34.59,-5.215 -38.09,0 -63.75,13.73 -76.97,41.203 -7.4,15.156 -11.09,37.488 -11.09,67.012 v 155.554 h 69.13" /><path
         id="path18"
         style="fill:#ffffff;fill-opacity:1;fill-rule:nonzero;stroke:none"
         d="m 2293.86,952.215 c -9.54,-9.832 -15.53,-23.145 -17.98,-39.949 h 116.26 c -1.23,17.91 -7.22,31.504 -17.98,40.781 -10.75,9.277 -24.1,13.914 -40.02,13.914 -17.32,0 -30.75,-4.922 -40.28,-14.746 z m 100.95,58.295 c 18,-8.07 32.87,-20.795 44.6,-38.186 10.57,-15.332 17.43,-33.117 20.56,-53.351 1.82,-11.864 2.56,-28.934 2.22,-51.219 h -187.97 c 1.05,-25.899 10.05,-44.043 26.99,-54.465 10.31,-6.473 22.71,-9.707 37.21,-9.707 15.37,0 27.86,3.945 37.47,11.836 5.24,4.27 9.87,10.187 13.89,17.766 h 68.89 c -1.81,-15.313 -10.15,-30.871 -25.01,-46.653 -23.12,-25.097 -55.49,-37.644 -97.1,-37.644 -34.35,0 -64.65,10.586 -90.91,31.758 -26.26,21.16 -39.38,55.605 -39.38,103.32 0,44.707 11.85,78.992 35.55,102.851 23.7,23.854 54.47,35.794 92.29,35.794 22.46,0 42.7,-4.04 60.7,-12.1" /><path
         id="path20"
         style="fill:#ffffff;fill-opacity:1;fill-rule:nonzero;stroke:none"
         d="m 2563.55,952.215 c -9.54,-9.832 -15.53,-23.145 -17.98,-39.949 h 116.26 c -1.23,17.91 -7.22,31.504 -17.98,40.781 -10.75,9.277 -24.1,13.914 -40.02,13.914 -17.32,0 -30.75,-4.922 -40.28,-14.746 z m 100.95,58.295 c 18.01,-8.07 32.87,-20.795 44.6,-38.186 10.57,-15.332 17.43,-33.117 20.56,-53.351 1.82,-11.864 2.56,-28.934 2.23,-51.219 h -187.98 c 1.05,-25.899 10.05,-44.043 27,-54.465 10.3,-6.473 22.71,-9.707 37.2,-9.707 15.37,0 27.86,3.945 37.47,11.836 5.24,4.27 9.87,10.187 13.89,17.766 h 68.9 c -1.82,-15.313 -10.16,-30.871 -25.02,-46.653 -23.12,-25.097 -55.49,-37.644 -97.1,-37.644 -34.35,0 -64.65,10.586 -90.91,31.758 -26.26,21.16 -39.38,55.605 -39.38,103.32 0,44.707 11.85,78.992 35.56,102.851 23.69,23.854 54.46,35.794 92.29,35.794 22.46,0 42.69,-4.04 60.69,-12.1" /><path
         id="path22"
         style="fill:#ffffff;fill-opacity:1;fill-rule:nonzero;stroke:none"
         d="m 2974.13,1000.94 c 16.9,-13.979 25.35,-37.143 25.35,-69.495 v -173.8 h -69.14 v 156.984 c 0,13.574 -1.8,23.992 -5.41,31.258 -6.58,13.261 -19.11,19.883 -37.6,19.883 -22.72,0 -38.31,-9.707 -46.78,-29.122 -4.39,-10.261 -6.58,-23.359 -6.58,-39.304 V 757.645 h -67.48 v 257.615 h 65.35 v -37.643 c 8.64,13.262 16.82,22.803 24.52,28.653 13.83,10.41 31.36,15.62 52.58,15.62 26.56,0 48.29,-6.98 65.19,-20.95" /><path
         id="path24"
         style="fill:#ffffff;fill-opacity:1;fill-rule:nonzero;stroke:none"
         d="m 3433.92,1106.66 h 104.94 V 757.645 h -67.95 v 236.074 c 0,6.781 0.07,16.291 0.23,28.531 0.16,12.23 0.24,21.66 0.24,28.3 l -66.14,-292.905 h -70.88 l -65.66,292.905 c 0,-6.64 0.08,-16.07 0.23,-28.3 0.16,-12.24 0.24,-21.75 0.24,-28.531 V 757.645 h -67.96 v 349.015 h 106.13 l 63.53,-274.426 63.05,274.426" /><path
         id="path26"
         style="fill:#ffffff;fill-opacity:1;fill-rule:nonzero;stroke:none"
         d="m 3744.38,883.145 c -4.32,-2.696 -8.68,-4.864 -13.08,-6.516 -4.4,-1.66 -10.44,-3.203 -18.12,-4.617 l -15.36,-2.844 c -14.4,-2.527 -24.74,-5.605 -31.02,-9.238 -10.63,-6.153 -15.94,-15.703 -15.94,-28.641 0,-11.535 3.24,-19.855 9.74,-24.98 6.49,-5.137 14.38,-7.696 23.68,-7.696 14.75,0 28.32,4.258 40.75,12.782 12.42,8.527 18.87,24.074 19.35,46.64 z m -41.26,31.484 c 12.56,1.582 21.54,3.555 26.95,5.918 9.7,4.109 14.55,10.496 14.55,19.18 0,10.574 -3.72,17.878 -11.16,21.902 -7.44,4.023 -18.36,6.035 -32.76,6.035 -16.16,0 -27.6,-3.945 -34.32,-11.836 -4.81,-5.84 -8,-13.73 -9.6,-23.68 h -65.12 c 1.43,22.579 7.77,41.122 19.03,55.645 17.91,22.737 48.67,34.097 92.27,34.097 28.37,0 53.58,-5.6 75.62,-16.81 22.03,-11.213 33.05,-32.357 33.05,-63.459 V 823.23 c 0,-8.203 0.16,-18.152 0.48,-29.832 0.47,-8.839 1.81,-14.835 4.02,-18 2.21,-3.152 5.52,-5.761 9.95,-7.812 v -9.941 h -73.41 c -2.05,5.207 -3.47,10.097 -4.26,14.679 -0.79,4.578 -1.42,9.785 -1.89,15.633 -9.37,-10.105 -20.17,-18.711 -32.39,-25.809 -14.61,-8.371 -31.13,-12.55 -49.54,-12.55 -23.5,0 -42.91,6.672 -58.23,20 -15.33,13.34 -22.98,32.246 -22.98,56.711 0,31.726 12.32,54.695 36.97,68.906 13.51,7.734 33.39,13.262 59.63,16.57 l 23.14,2.844" /><path
         id="path28"
         style="fill:#ffffff;fill-opacity:1;fill-rule:nonzero;stroke:none"
         d="m 4013.96,1021.78 c 0.86,-0.09 2.79,-0.21 5.8,-0.37 v -69.137 c -4.27,0.481 -8.05,0.793 -11.36,0.95 -3.32,0.156 -6.01,0.242 -8.06,0.242 -27.15,0 -45.38,-8.848 -54.69,-26.524 -5.21,-9.941 -7.82,-25.253 -7.82,-45.937 V 757.645 h -67.95 v 258.085 h 64.4 v -44.98 c 10.42,17.199 19.5,28.965 27.23,35.27 12.63,10.58 29.04,15.87 49.25,15.87 1.26,0 2.33,-0.03 3.2,-0.11" /><path
         id="path30"
         style="fill:#ffffff;fill-opacity:1;fill-rule:nonzero;stroke:none"
         d="m 4209.96,830.926 c 10.85,11.914 16.27,30.898 16.27,56.945 0,24.473 -5.15,43.094 -15.45,55.887 -10.29,12.785 -24.08,19.172 -41.37,19.172 -23.58,0 -39.85,-11.125 -48.81,-33.379 -4.71,-11.848 -7.08,-26.446 -7.08,-43.809 0,-15 2.52,-28.332 7.55,-40.012 9.11,-21.785 25.46,-32.675 49.04,-32.675 15.73,0 29.01,5.957 39.85,17.871 z m -22.98,185.054 c 16.4,-6.8 29.64,-19.273 39.73,-37.417 v 37.167 h 65.82 V 770.906 c 0,-33.308 -5.61,-58.406 -16.81,-75.301 -19.26,-29.035 -56.2,-43.566 -110.81,-43.566 -33,0 -59.9,6.477 -80.74,19.414 -20.84,12.949 -32.37,32.285 -34.57,58.02 h 73.39 c 1.9,-7.891 4.98,-13.575 9.24,-17.051 7.26,-6.152 19.5,-9.238 36.7,-9.238 24.31,0 40.57,8.132 48.78,24.394 5.36,10.418 8.05,27.938 8.05,52.559 v 16.582 c -6.48,-11.055 -13.42,-19.348 -20.84,-24.864 -13.42,-10.265 -30.86,-15.39 -52.33,-15.39 -33.14,0 -59.62,11.64 -79.44,34.922 -19.8,23.281 -29.71,54.812 -29.71,94.59 0,38.359 9.54,70.605 28.62,96.726 19.07,26.127 46.1,39.187 81.1,39.187 12.93,0 24.2,-1.97 33.82,-5.91" /><path
         id="path32"
         style="fill:#ffffff;fill-opacity:1;fill-rule:nonzero;stroke:none"
         d="m 4499,883.145 c -4.33,-2.696 -8.69,-4.864 -13.09,-6.516 -4.4,-1.66 -10.43,-3.203 -18.12,-4.617 l -15.36,-2.844 c -14.4,-2.527 -24.74,-5.605 -31.02,-9.238 -10.62,-6.153 -15.93,-15.703 -15.93,-28.641 0,-11.535 3.24,-19.855 9.73,-24.98 6.49,-5.137 14.39,-7.696 23.68,-7.696 14.75,0 28.33,4.258 40.76,12.782 12.42,8.527 18.86,24.074 19.35,46.64 z m -41.27,31.484 c 12.56,1.582 21.54,3.555 26.95,5.918 9.71,4.109 14.56,10.496 14.56,19.18 0,10.574 -3.73,17.878 -11.17,21.902 -7.44,4.023 -18.36,6.035 -32.75,6.035 -16.16,0 -27.61,-3.945 -34.33,-11.836 -4.8,-5.84 -8,-13.73 -9.6,-23.68 h -65.11 c 1.42,22.579 7.76,41.122 19.02,55.645 17.92,22.737 48.67,34.097 92.28,34.097 28.36,0 53.57,-5.6 75.61,-16.81 22.04,-11.213 33.06,-32.357 33.06,-63.459 V 823.23 c 0,-8.203 0.15,-18.152 0.47,-29.832 0.47,-8.839 1.81,-14.835 4.03,-18 2.21,-3.152 5.52,-5.761 9.94,-7.812 v -9.941 h -73.4 c -2.06,5.207 -3.47,10.097 -4.27,14.679 -0.79,4.578 -1.41,9.785 -1.89,15.633 -9.37,-10.105 -20.17,-18.711 -32.39,-25.809 -14.6,-8.371 -31.12,-12.55 -49.53,-12.55 -23.51,0 -42.91,6.672 -58.24,20 -15.32,13.34 -22.98,32.246 -22.98,56.711 0,31.726 12.32,54.695 36.97,68.906 13.52,7.734 33.4,13.262 59.64,16.57 l 23.13,2.844" /><path
         id="path34"
         style="fill:#ffffff;fill-opacity:1;fill-rule:nonzero;stroke:none"
         d="m 4768.57,1021.78 c 0.87,-0.09 2.8,-0.21 5.8,-0.37 v -69.137 c -4.27,0.481 -8.04,0.793 -11.37,0.95 -3.31,0.156 -5.99,0.242 -8.04,0.242 -27.16,0 -45.39,-8.848 -54.7,-26.524 -5.21,-9.941 -7.81,-25.253 -7.81,-45.937 V 757.645 h -67.96 v 258.085 h 64.4 v -44.98 c 10.42,17.199 19.5,28.965 27.23,35.27 12.63,10.58 29.04,15.87 49.26,15.87 1.26,0 2.32,-0.03 3.19,-0.11" /><path
         id="path36"
         style="fill:#ffffff;fill-opacity:1;fill-rule:nonzero;stroke:none"
         d="m 4881.15,952.215 c -9.54,-9.832 -15.53,-23.145 -17.98,-39.949 h 116.26 c -1.23,17.91 -7.22,31.504 -17.98,40.781 -10.76,9.277 -24.1,13.914 -40.02,13.914 -17.32,0 -30.75,-4.922 -40.28,-14.746 z m 100.95,58.295 c 18,-8.07 32.87,-20.795 44.6,-38.186 10.57,-15.332 17.43,-33.117 20.56,-53.351 1.82,-11.864 2.56,-28.934 2.23,-51.219 h -187.98 c 1.05,-25.899 10.05,-44.043 26.99,-54.465 10.31,-6.473 22.71,-9.707 37.21,-9.707 15.37,0 27.86,3.945 37.47,11.836 5.23,4.27 9.87,10.187 13.89,17.766 h 68.89 c -1.81,-15.313 -10.15,-30.871 -25.02,-46.653 -23.11,-25.097 -55.47,-37.644 -97.1,-37.644 -34.34,0 -64.64,10.586 -90.9,31.758 -26.25,21.16 -39.38,55.605 -39.38,103.32 0,44.707 11.85,78.992 35.55,102.851 23.7,23.854 54.47,35.794 92.29,35.794 22.46,0 42.7,-4.04 60.7,-12.1" /><path
         id="path38"
         style="fill:#ffffff;fill-opacity:1;fill-rule:nonzero;stroke:none"
         d="m 5057.09,965.301 v 48.069 h 35.99 v 71.98 h 66.77 v -71.98 h 41.91 v -48.069 h -41.91 V 828.914 c 0,-10.574 1.34,-17.168 4.02,-19.766 2.69,-2.605 10.9,-3.914 24.63,-3.914 2.05,0 4.22,0.039 6.52,0.125 2.28,0.079 4.53,0.196 6.74,0.352 v -50.43 l -31.97,-1.191 c -31.88,-1.102 -53.67,4.426 -65.35,16.582 -7.57,7.726 -11.36,19.648 -11.36,35.754 v 158.875 h -35.99" /><path
         id="path40"
         style="fill:#ffffff;fill-opacity:1;fill-rule:nonzero;stroke:none"
         d="m 5385.26,1106.66 h 74.11 V 892.305 c 0,-23.977 2.83,-41.477 8.5,-52.52 8.81,-19.562 28,-29.336 57.57,-29.336 29.41,0 48.52,9.774 57.33,29.336 5.65,11.043 8.5,28.543 8.5,52.52 v 214.355 h 74.11 V 892.137 c 0,-37.098 -5.75,-65.985 -17.26,-86.66 -21.43,-37.891 -62.32,-56.825 -122.68,-56.825 -60.36,0 -101.33,18.934 -122.92,56.825 -11.51,20.675 -17.26,49.562 -17.26,86.66 v 214.523" /><path
         id="path42"
         style="fill:#ffffff;fill-opacity:1;fill-rule:nonzero;stroke:none"
         d="m 5938.13,1000.94 c 16.9,-13.979 25.35,-37.143 25.35,-69.495 v -173.8 h -69.14 v 156.984 c 0,13.574 -1.8,23.992 -5.41,31.258 -6.58,13.261 -19.12,19.883 -37.6,19.883 -22.73,0 -38.32,-9.707 -46.78,-29.122 -4.39,-10.261 -6.58,-23.359 -6.58,-39.304 V 757.645 h -67.48 v 257.615 h 65.35 v -37.643 c 8.64,13.262 16.81,22.803 24.52,28.653 13.83,10.41 31.36,15.62 52.58,15.62 26.57,0 48.29,-6.98 65.19,-20.95" /><path
         id="path44"
         style="fill:#ffffff;fill-opacity:1;fill-rule:nonzero;stroke:none"
         d="m 6027.17,1015.73 h 68.43 V 757.645 h -68.43 z m 68.43,30.78 h -68.43 v 62.28 h 68.43 v -62.28" /><path
         id="path46"
         style="fill:#ffffff;fill-opacity:1;fill-rule:nonzero;stroke:none"
         d="m 6319.95,1015.73 h 72.45 l -93.19,-258.085 h -71.16 l -92.56,258.085 h 75.78 l 53.75,-190.371 54.93,190.371" /><path
         id="path48"
         style="fill:#ffffff;fill-opacity:1;fill-rule:nonzero;stroke:none"
         d="m 6497.88,952.215 c -9.54,-9.832 -15.53,-23.145 -17.98,-39.949 h 116.26 c -1.23,17.91 -7.22,31.504 -17.98,40.781 -10.76,9.277 -24.1,13.914 -40.02,13.914 -17.32,0 -30.75,-4.922 -40.28,-14.746 z m 100.95,58.295 c 18,-8.07 32.87,-20.795 44.59,-38.186 10.58,-15.332 17.44,-33.117 20.57,-53.351 1.82,-11.864 2.56,-28.934 2.23,-51.219 h -187.98 c 1.04,-25.899 10.05,-44.043 26.99,-54.465 10.3,-6.473 22.71,-9.707 37.21,-9.707 15.37,0 27.86,3.945 37.47,11.836 5.23,4.27 9.87,10.187 13.89,17.766 h 68.89 c -1.81,-15.313 -10.15,-30.871 -25.02,-46.653 -23.11,-25.097 -55.48,-37.644 -97.1,-37.644 -34.34,0 -64.65,10.586 -90.91,31.758 -26.25,21.16 -39.37,55.605 -39.37,103.32 0,44.707 11.85,78.992 35.55,102.851 23.7,23.854 54.47,35.794 92.29,35.794 22.46,0 42.7,-4.04 60.7,-12.1" /><path
         id="path50"
         style="fill:#ffffff;fill-opacity:1;fill-rule:nonzero;stroke:none"
         d="m 6843.71,1021.78 c 0.87,-0.09 2.8,-0.21 5.8,-0.37 v -69.137 c -4.27,0.481 -8.05,0.793 -11.37,0.95 -3.31,0.156 -5.99,0.242 -8.05,0.242 -27.15,0 -45.39,-8.848 -54.69,-26.524 -5.22,-9.941 -7.82,-25.253 -7.82,-45.937 V 757.645 h -67.95 v 258.085 h 64.4 v -44.98 c 10.42,17.199 19.49,28.965 27.23,35.27 12.62,10.58 29.04,15.87 49.25,15.87 1.26,0 2.33,-0.03 3.2,-0.11" /><path
         id="path52"
         style="fill:#ffffff;fill-opacity:1;fill-rule:nonzero;stroke:none"
         d="m 6941.38,840.047 c 1.43,-12 4.53,-20.527 9.28,-25.574 8.41,-8.996 23.96,-13.496 46.63,-13.496 13.33,0 23.92,1.972 31.77,5.918 7.85,3.945 11.78,9.863 11.78,17.761 0,7.578 -3.17,13.332 -9.5,17.285 -6.32,3.946 -29.85,10.735 -70.59,20.364 -29.33,7.254 -49.99,16.336 -61.98,27.226 -12.01,10.731 -18,26.199 -18,46.407 0,23.835 9.37,44.316 28.11,61.445 18.75,17.127 45.13,25.687 79.14,25.687 32.27,0 58.57,-6.43 78.9,-19.29 20.32,-12.874 31.99,-35.089 35,-66.651 h -67.48 c -0.95,8.672 -3.41,15.547 -7.36,20.594 -7.44,9.152 -20.11,13.73 -37.99,13.73 -14.72,0 -25.21,-2.285 -31.46,-6.863 -6.26,-4.582 -9.38,-9.942 -9.38,-16.106 0,-7.734 3.33,-13.339 9.98,-16.804 6.64,-3.633 30.13,-9.864 70.45,-18.703 26.88,-6.317 47.04,-15.868 60.46,-28.653 13.26,-12.949 19.89,-29.129 19.89,-48.543 0,-25.566 -9.53,-46.445 -28.59,-62.629 -19.07,-16.179 -48.52,-24.265 -88.38,-24.265 -40.66,0 -70.67,8.562 -90.04,25.691 -19.38,17.121 -29.06,38.945 -29.06,65.469 h 68.42" /><path
         id="path54"
         style="fill:#ffffff;fill-opacity:1;fill-rule:nonzero;stroke:none"
         d="m 7159.69,1015.73 h 68.43 V 757.645 h -68.43 z m 68.43,30.78 h -68.43 v 62.28 h 68.43 v -62.28" /><path
         id="path56"
         style="fill:#ffffff;fill-opacity:1;fill-rule:nonzero;stroke:none"
         d="m 7266.95,965.301 v 48.069 h 36 v 71.98 h 66.76 v -71.98 h 41.92 v -48.069 h -41.92 V 828.914 c 0,-10.574 1.34,-17.168 4.03,-19.766 2.68,-2.605 10.9,-3.914 24.63,-3.914 2.05,0 4.21,0.039 6.51,0.125 2.28,0.079 4.53,0.196 6.75,0.352 v -50.43 l -31.97,-1.191 c -31.89,-1.102 -53.68,4.426 -65.36,16.582 -7.56,7.726 -11.35,19.648 -11.35,35.754 v 158.875 h -36" /><path
         id="path58"
         style="fill:#ffffff;fill-opacity:1;fill-rule:nonzero;stroke:none"
         d="m 7465.13,708.164 8.53,-0.48 c 6.63,-0.313 12.94,-0.079 18.94,0.714 6,0.79 11.05,2.598 15.16,5.438 3.95,2.687 7.61,8.293 11.01,16.816 3.39,8.528 4.85,13.731 4.38,15.625 l -94.83,269.453 h 75.06 l 56.35,-190.371 53.27,190.371 h 71.75 l -88.48,-253.828 c -17.1,-48.925 -30.63,-79.277 -40.58,-91.035 -9.96,-11.758 -29.87,-17.644 -59.74,-17.644 -6,0 -10.83,0.047 -14.46,0.125 -3.63,0.078 -9.09,0.351 -16.36,0.82 v 53.996" /><path
         id="path60"
         style="fill:#ffffff;fill-opacity:1;fill-rule:nonzero;stroke:none"
         d="m 1550.04,317.68 v 251.683 h 167.43 V 549.09 h -143.66 v -90.887 h 129.68 V 437.93 h -129.68 v -99.969 h 147.15 V 317.68 h -170.92" /><path
         id="path62"
         style="fill:#ffffff;fill-opacity:1;fill-rule:nonzero;stroke:none"
         d="m 1787.38,337.961 h 56.97 c 10.72,0 20.8,0.629 30.24,1.918 9.44,1.281 19.05,4.48 28.84,9.609 8.39,4.203 15.26,9.907 20.62,17.133 5.36,7.227 9.61,15.086 12.76,23.594 3.15,8.504 5.36,17.422 6.64,26.746 1.28,9.316 1.92,18.293 1.92,26.914 0,9.082 -0.58,18.352 -1.75,27.785 -1.16,9.442 -3.37,18.406 -6.64,26.914 -3.26,8.504 -7.69,16.309 -13.28,23.426 -5.59,7.102 -12.81,12.988 -21.67,17.648 -7.46,3.965 -16.32,6.524 -26.56,7.696 -10.26,1.16 -20.63,1.746 -31.12,1.746 h -56.97 z m -23.77,-20.281 v 251.683 h 85.99 c 6.99,0 13.86,-0.175 20.62,-0.527 6.76,-0.352 13.4,-1.172 19.93,-2.449 6.52,-1.282 12.87,-3.203 19.05,-5.762 6.17,-2.57 12.17,-5.949 18,-10.137 8.39,-6.066 15.26,-13.457 20.62,-22.199 5.36,-8.738 9.61,-17.949 12.76,-27.617 3.15,-9.668 5.36,-19.461 6.64,-29.363 1.28,-9.903 1.92,-19.043 1.92,-27.434 0,-8.387 -0.52,-16.902 -1.57,-25.516 -1.05,-8.625 -2.74,-17.082 -5.07,-25.343 -2.33,-8.282 -5.41,-16.2 -9.26,-23.77 -3.84,-7.578 -8.68,-14.512 -14.51,-20.797 -5.82,-6.527 -12.18,-11.769 -19.05,-15.738 -6.88,-3.961 -14.1,-7.051 -21.67,-9.25 -7.57,-2.223 -15.44,-3.731 -23.59,-4.563 -8.16,-0.816 -16.43,-1.218 -24.82,-1.218 h -85.99" /><path
         id="path64"
         style="fill:#ffffff;fill-opacity:1;fill-rule:nonzero;stroke:none"
         d="m 2024.37,317.68 v 251.683 h 23.77 V 317.68 h -23.77" /><path
         id="path66"
         style="fill:#ffffff;fill-opacity:1;fill-rule:nonzero;stroke:none"
         d="m 2136.93,537.207 h -0.71 V 317.68 h -23.77 v 251.683 h 26.92 l 145.41,-219.875 h 0.71 v 219.875 h 23.76 V 317.68 h -27.61 l -144.71,219.527" /><path
         id="path68"
         style="fill:#ffffff;fill-opacity:1;fill-rule:nonzero;stroke:none"
         d="m 2389.29,337.961 h 60.47 c 13.05,0 24.41,0.57 34.08,1.75 9.67,1.16 17.66,3.551 23.95,7.16 6.29,3.609 11.01,8.742 14.16,15.383 3.14,6.641 4.72,15.43 4.72,26.387 0,10.488 -1.75,18.937 -5.25,25.343 -3.49,6.407 -8.51,11.368 -15.03,14.852 -6.52,3.496 -14.33,5.891 -23.42,7.168 -9.09,1.281 -19.22,1.926 -30.41,1.926 h -63.27 z m 0,120.242 h 60.13 c 12.34,0 22.72,1.055 31.1,3.145 8.39,2.097 15.15,5.183 20.28,9.265 5.12,4.075 8.79,9.094 11.01,15.032 2.21,5.945 3.32,12.761 3.32,20.449 0,7.918 -1.29,14.617 -3.84,20.097 -2.57,5.477 -6.64,9.903 -12.24,13.282 -5.59,3.379 -12.88,5.828 -21.85,7.343 -8.97,1.512 -19.98,2.274 -33.03,2.274 h -54.88 z M 2365.52,317.68 v 251.683 h 90.89 c 14.68,0 27.26,-1.523 37.75,-4.55 10.49,-3.028 19.05,-7.333 25.69,-12.93 6.64,-5.594 11.48,-12.293 14.51,-20.098 3.02,-7.812 4.54,-16.375 4.54,-25.691 0,-8.86 -1.17,-16.485 -3.5,-22.903 -2.33,-6.406 -5.36,-11.765 -9.08,-16.074 -3.74,-4.316 -7.99,-7.695 -12.76,-10.137 -4.78,-2.449 -9.73,-4.14 -14.86,-5.066 v -0.703 c 17.48,-2.57 30.47,-9.434 38.98,-20.625 8.5,-11.184 12.76,-25.168 12.76,-41.945 0,-13.047 -2.05,-24.121 -6.12,-33.203 -4.08,-9.086 -9.73,-16.438 -16.95,-22.016 -7.23,-5.602 -15.91,-9.621 -26.04,-12.063 -10.14,-2.461 -21.15,-3.679 -33.04,-3.679 h -102.77" /><path
         id="path70"
         style="fill:#ffffff;fill-opacity:1;fill-rule:nonzero;stroke:none"
         d="m 2599.02,569.363 h 23.77 V 419.402 c 0,-31.23 5.83,-53.711 17.48,-67.461 11.65,-13.75 30.41,-20.621 56.27,-20.621 13.52,0 25,1.801 34.44,5.418 9.44,3.602 17.06,9.082 22.89,16.426 5.82,7.344 10.02,16.484 12.59,27.441 2.56,10.946 3.84,23.887 3.84,38.797 v 149.961 h 23.77 V 412.41 c 0,-32.851 -8.1,-57.969 -24.29,-75.32 -16.2,-17.36 -40.61,-26.051 -73.24,-26.051 -32.85,0 -57.32,8.859 -73.4,26.57 -16.08,17.704 -24.12,42.645 -24.12,74.801 v 156.953" /><path
         id="path72"
         style="fill:#ffffff;fill-opacity:1;fill-rule:nonzero;stroke:none"
         d="m 2948.57,452.266 c 8.85,0 17.06,0.925 24.64,2.793 7.57,1.863 14.16,4.832 19.75,8.914 5.59,4.074 10.02,9.257 13.28,15.558 3.26,6.289 4.89,13.856 4.89,22.715 0,9.317 -1.69,17.012 -5.06,23.074 -3.38,6.055 -7.93,10.832 -13.64,14.328 -5.71,3.497 -12.23,5.946 -19.57,7.344 -7.34,1.395 -14.98,2.098 -22.9,2.098 h -75.5 v -96.824 z m -74.11,-20.274 V 317.68 l -23.77,0.359 v 251.324 h 98.57 c 27.73,0 48.94,-5.195 63.62,-15.554 14.69,-10.371 22.02,-27.207 22.02,-50.508 0,-15.852 -3.2,-28.438 -9.61,-37.754 -6.41,-9.328 -16.84,-17.246 -31.28,-23.77 7.45,-2.57 13.28,-6.289 17.48,-11.191 4.19,-4.895 7.34,-10.481 9.43,-16.777 2.1,-6.289 3.44,-12.93 4.02,-19.922 0.58,-6.992 0.99,-13.75 1.22,-20.274 0.23,-9.562 0.64,-17.48 1.23,-23.773 0.58,-6.289 1.28,-11.41 2.09,-15.379 0.82,-3.961 1.81,-7.051 2.98,-9.262 1.16,-2.211 2.56,-3.898 4.19,-5.058 v -2.102 l -26.21,-0.359 c -2.57,4.199 -4.37,10.019 -5.42,17.48 -1.05,7.461 -1.87,15.262 -2.45,23.422 -0.59,8.156 -1.05,16.074 -1.4,23.77 -0.35,7.687 -0.99,13.984 -1.92,18.878 -1.4,6.758 -3.67,12.168 -6.82,16.25 -3.14,4.071 -6.94,7.168 -11.36,9.266 -4.43,2.09 -9.38,3.496 -14.85,4.192 -5.48,0.703 -11.14,1.054 -16.96,1.054 h -74.8" /><path
         id="path74"
         style="fill:#ffffff;fill-opacity:1;fill-rule:nonzero;stroke:none"
         d="m 3191.15,427.441 v 20.274 h 107.67 V 317.68 h -20.28 v 43.004 c -4.43,-7.461 -9.5,-14.286 -15.2,-20.454 -5.72,-6.179 -12.3,-11.421 -19.75,-15.73 -7.47,-4.32 -16.08,-7.629 -25.87,-9.961 -9.79,-2.32 -20.86,-3.5 -33.21,-3.5 -15.85,0 -30.53,2.801 -44.04,8.391 -13.52,5.601 -25.17,13.929 -34.96,24.992 -9.79,11.066 -17.42,25 -22.9,41.777 -5.47,16.778 -8.21,36.348 -8.21,58.723 0,18.406 2.33,35.594 6.99,51.562 4.66,15.957 11.83,29.825 21.5,41.59 9.67,11.77 21.79,21.028 36.35,27.793 14.57,6.758 31.75,10.137 51.56,10.137 13.28,0 25.7,-1.629 37.23,-4.891 11.54,-3.273 21.9,-8.215 31.11,-14.863 9.2,-6.641 16.95,-14.914 23.24,-24.816 6.3,-9.903 10.84,-21.621 13.64,-35.125 h -24.47 c -2.1,9.316 -5.65,17.703 -10.66,25.164 -5.01,7.453 -11.02,13.683 -18,18.703 -6.99,5.008 -14.81,8.847 -23.43,11.531 -8.62,2.676 -17.59,4.023 -26.91,4.023 -16.55,0 -30.76,-2.917 -42.65,-8.738 -11.88,-5.832 -21.67,-14.043 -29.36,-24.648 -7.69,-10.606 -13.34,-23.301 -16.95,-38.098 -3.62,-14.805 -5.42,-31.055 -5.42,-48.758 0,-13.984 2.04,-27.265 6.12,-39.855 4.07,-12.586 10.01,-23.653 17.83,-33.203 7.8,-9.559 17.35,-17.129 28.66,-22.719 11.3,-5.602 24.17,-8.391 38.63,-8.391 6.75,0 13.74,0.75 20.97,2.27 7.22,1.519 14.21,4.019 20.97,7.512 6.76,3.5 13.05,8.039 18.88,13.632 5.82,5.598 10.83,12.461 15.03,20.625 3.96,7.922 6.69,16.192 8.21,24.817 1.51,8.621 2.39,17.715 2.62,27.265 h -84.94" /><path
         id="path76"
         style="fill:#ffffff;fill-opacity:1;fill-rule:nonzero;stroke:none"
         d="m 3355.47,317.68 v 251.683 h 23.77 V 461.348 h 148.91 v 108.015 h 23.77 V 317.68 h -23.77 V 441.074 H 3379.24 V 317.68 h -23.77" /><path
         id="path78"
         style="fill:#ffffff;fill-opacity:1;fill-rule:nonzero;stroke:none"
         d="m 1350.28,1220.96 c -87.36,49.49 -434.448,117.24 -668.557,117.24 -234.11,0 -581.188,-67.75 -668.5511,-117.24 C 21.582,1086.24 40.3633,964.395 66.7109,854.172 199,899.496 481.453,949.055 681.723,949.055 c 200.269,0 482.727,-49.559 615.017,-94.871 26.34,110.211 45.12,232.056 53.54,366.776 m -196.62,-264.222 5.96,35.516 c 9.5,-0.289 19.48,-1.316 29.68,-3.121 10.19,-1.801 19.92,-4.238 28.95,-7.207 L 1212,944.191 Z m 58.67,35.207 c -6.9,1.981 -14.15,3.66 -21.67,4.981 -7.5,1.328 -14.89,2.226 -22.05,2.742 l 10.27,58.252 c 7.11,-0.33 14.53,-1.14 22.1,-2.49 7.58,-1.32 14.82,-3.1 21.62,-5.23 z m -138.57,-20.531 6.91,39.216 c 1.67,9.41 9.85,15.76 18.23,14.3 l 3.93,-0.69 c 8.36,-1.48 13.89,-10.25 12.24,-19.68 l -6.92,-39.205 z m -735.455,53.726 c -4.258,2.16 -9.43,5.77 -12.024,9.16 -1.289,2.02 -2.73,4.85 -2.48,7.52 -3.528,-0.82 -6.758,-0.12 -9.231,0.51 -2.625,1.19 -6.039,2.85 -4.906,5.05 -3.172,-0.99 -2.57,0.65 -4.621,1.29 2.93,1.31 3.348,6.16 7.469,9.13 3.91,2.5 8.843,2.68 11.468,0.98 4.122,-2.65 1.106,-7.85 3.333,-12.17 6.992,-19.63 52.019,-1.45 60.074,11.68 -0.465,-10.39 -6.946,-17.08 -11.071,-18.85 5.997,-2.11 7.95,-9.51 6.918,-15.76 -3.121,6.8 -10.523,11.61 -17.004,9.93 2.114,-4.87 6.043,-8.82 6.102,-13.06 -3.297,6.33 -7.168,6.13 -11.301,7.08 0.891,-3.99 1.535,-6.7 2.692,-12.06 -2.328,3.84 -5.543,5.61 -11.469,6.15 2.07,-3.9 3.891,-8.28 4.75,-13 -4.473,9.22 -11.07,12.05 -18.699,16.42 m 10,21.49 c 0.597,-4.56 -1.012,-6.67 -7.391,-6.25 -7.711,0.68 -10.578,3.98 -11.172,7.25 0.121,3.98 6.871,2.01 10.84,1.93 4.152,0.24 6.82,0.73 7.723,-2.93 m -3.852,5.83 c -2.172,-0.83 -5.48,-1.17 -7.754,-0.53 -1.476,0.09 -1.554,4.43 0.192,4.85 1.953,0.37 5.14,0.94 7.3,1.11 2.594,0.3 3.043,-4.8 0.262,-5.43 m -14.191,-0.93 c -2.551,0.84 -2.828,3.57 -1.93,6.31 1.633,-0.66 4.133,-0.95 5.703,-1.19 0.086,-1.74 -0.484,-5.38 -3.773,-5.12 m 16.621,7.51 c 4.09,0.73 7.152,3.82 8.558,0.96 1.832,-3.22 -2.668,-4.74 -7.605,-6.73 1.078,2.18 0.98,4.8 -0.953,5.77 m 11.621,-5.4 c 2.269,-3.41 -4.961,-5.57 -8.59,-6.6 0.57,1.35 -0.273,3.53 -1.762,4.34 3.211,0.78 8.813,4.44 10.352,2.26 m -7.77,-8.71 c 4.371,1.23 9.207,4.55 10.317,2.56 1.012,-3.05 -2.387,-4.9 -10.617,-6.95 0.949,0.8 1.339,3.7 0.3,4.39 m 5.231,17.7 c 4.519,1.85 11.765,5.48 16.578,10.3 -0.109,-4.49 -7.199,-12.83 -15.102,-16.05 1.68,1.83 0.25,5.1 -1.476,5.75 m 20.289,4.76 c -2.551,-6.12 -7.43,-12.48 -15.652,-16.29 0.921,1.49 -0.168,4.43 -1.602,4.69 6.086,2.14 11.543,6.74 17.254,11.6 m 1.68,-7.53 c -1.481,-4.74 -7.809,-12.36 -14.86,-14.85 1,1.42 0.649,4.06 -1.261,4.6 7.578,3.72 12.679,6.84 16.121,10.25 m -47.649,-45.24 c 2.578,3.37 4.137,5.47 4.617,8.96 0.801,-0.96 2.821,-1.74 3.86,-2.4 -2.102,-3.3 -5.699,-5.29 -8.477,-6.56 m -6.25,4.61 c 2.149,1.89 4.02,5.5 4.324,8.74 1.567,-1.2 3.551,-2.44 5.125,-3.28 -2.64,-2.54 -6.261,-4.1 -9.449,-5.46 m -5.359,5.45 c 1.859,1.69 5.304,4.58 5.437,7.89 0.496,-0.69 2.367,-2.87 2.93,-3.41 -1.918,-2.95 -5.43,-3.57 -8.367,-4.48 M 202.375,992.063 c 2.566,3.359 4.125,5.468 4.617,8.957 0.793,-0.96 2.821,-1.723 3.852,-2.395 -2.102,-3.309 -5.699,-5.293 -8.469,-6.562 m -6.262,4.609 c 2.16,1.883 4.02,5.508 4.328,8.728 1.575,-1.18 3.559,-2.43 5.122,-3.26 -2.641,-2.546 -6.25,-4.105 -9.45,-5.468 m -5.347,5.448 c 1.859,1.69 5.297,4.57 5.425,7.89 0.508,-0.69 2.379,-2.85 2.942,-3.4 -1.938,-2.95 -5.442,-3.57 -8.367,-4.49 m -9.02,22.7 c -3.176,-0.97 -2.562,0.65 -4.625,1.3 2.945,1.31 3.34,6.17 7.473,9.12 3.898,2.5 8.851,2.67 11.469,0.99 4.121,-2.66 1.101,-7.85 3.339,-12.16 6.993,-19.64 52.032,-1.46 60.082,11.68 -0.461,-10.39 -6.953,-17.11 -11.101,-18.87 6.019,-2.09 7.972,-9.49 6.93,-15.76 -3.118,6.8 -10.512,11.62 -16.993,9.93 2.09,-4.85 6.032,-8.82 6.09,-13.054 -3.297,6.324 -7.176,6.134 -11.289,7.074 0.879,-3.97 1.535,-6.699 2.672,-12.062 -2.32,3.847 -5.531,5.617 -11.461,6.156 2.07,-3.887 3.902,-8.293 4.754,-13 -4.453,9.219 -11.063,12.051 -18.703,16.436 -4.246,2.15 -9.418,5.74 -12.024,9.16 -1.277,1.99 -2.707,4.83 -2.476,7.51 -3.528,-0.82 -6.77,-0.11 -9.223,0.52 -2.637,1.17 -6.039,2.84 -4.914,5.03 m 38.625,-0.73 c 0.613,-4.57 -1,-6.68 -7.367,-6.27 -7.707,0.68 -10.59,4 -11.18,7.25 0.141,3.98 6.879,2.01 10.84,1.95 4.16,0.23 6.82,0.71 7.707,-2.93 m -3.836,5.82 c -2.172,-0.82 -5.465,-1.18 -7.754,-0.55 -1.48,0.1 -1.547,4.45 0.192,4.87 1.953,0.36 5.14,0.93 7.32,1.11 2.582,0.29 3.02,-4.8 0.242,-5.43 m -14.195,-0.94 c -2.547,0.84 -2.817,3.56 -1.93,6.32 1.645,-0.66 4.121,-0.95 5.703,-1.18 0.09,-1.76 -0.48,-5.4 -3.773,-5.14 m 16.621,7.51 c 4.094,0.75 7.152,3.84 8.57,0.97 1.832,-3.22 -2.676,-4.75 -7.617,-6.74 1.078,2.19 0.977,4.82 -0.953,5.77 m 11.621,-5.4 c 2.27,-3.4 -4.961,-5.56 -8.578,-6.6 0.57,1.35 -0.281,3.53 -1.762,4.34 3.203,0.77 8.805,4.45 10.34,2.26 m -7.769,-8.7 c 4.382,1.22 9.218,4.56 10.308,2.55 1.031,-3.05 -2.379,-4.9 -10.609,-6.94 0.961,0.78 1.332,3.68 0.301,4.39 m 5.242,17.69 c 4.511,1.84 11.765,5.48 16.566,10.31 -0.098,-4.49 -7.195,-12.84 -15.098,-16.06 1.68,1.85 0.25,5.09 -1.468,5.75 m 20.277,4.75 c -2.551,-6.1 -7.441,-12.47 -15.641,-16.28 0.922,1.49 -0.179,4.43 -1.609,4.69 6.094,2.15 11.551,6.73 17.25,11.59 m 1.68,-7.53 c -1.481,-4.73 -7.797,-12.33 -14.86,-14.83 1.012,1.43 0.641,4.07 -1.257,4.6 7.578,3.71 12.679,6.83 16.117,10.23 m -72.27,109.65 c 6.981,-19.64 52.012,-1.45 60.071,11.7 -0.473,-10.41 -6.954,-17.09 -11.09,-18.89 6.019,-2.09 7.961,-9.48 6.922,-15.76 -3.11,6.81 -10.524,11.64 -17,9.94 2.097,-4.86 6.046,-8.8 6.097,-13.05 -3.289,6.33 -7.168,6.14 -11.301,7.06 0.899,-3.97 1.543,-6.69 2.68,-12.04 -2.308,3.83 -5.531,5.62 -11.457,6.15 2.07,-3.9 3.891,-8.3 4.762,-13 -4.465,9.22 -11.082,12.06 -18.711,16.43 -4.262,2.15 -9.422,5.75 -12.016,9.16 -1.289,1.99 -2.719,4.84 -2.488,7.53 -3.516,-0.84 -6.758,-0.13 -9.219,0.49 -2.652,1.19 -6.039,2.85 -4.906,5.04 -3.176,-0.96 -2.582,0.65 -4.637,1.29 2.942,1.31 3.352,6.17 7.485,9.14 3.898,2.5 8.839,2.66 11.457,0.98 4.132,-2.66 1.125,-7.85 3.351,-12.17 m -3.289,-27.39 c 2.141,1.88 4.02,5.52 4.317,8.74 1.574,-1.2 3.562,-2.45 5.132,-3.28 -2.64,-2.54 -6.257,-4.09 -9.449,-5.46 m 10.871,4.36 c 0.801,-0.98 2.817,-1.73 3.86,-2.39 -2.114,-3.31 -5.711,-5.31 -8.489,-6.57 2.586,3.35 4.137,5.47 4.629,8.96 m -16.222,1.09 c 1.851,1.69 5.289,4.57 5.421,7.89 0.508,-0.68 2.387,-2.87 2.93,-3.41 -1.918,-2.93 -5.43,-3.55 -8.351,-4.48 m 43.132,24.95 c 7.586,3.71 12.668,6.84 16.11,10.23 -1.481,-4.74 -7.801,-12.34 -14.86,-14.84 1.02,1.42 0.637,4.07 -1.25,4.61 m -13.664,1.74 c 3.215,0.79 8.817,4.47 10.352,2.28 2.262,-3.4 -4.969,-5.57 -8.578,-6.61 0.57,1.35 -0.278,3.53 -1.774,4.33 m 0.133,-4.73 c 0.621,-4.55 -1,-6.66 -7.367,-6.25 -7.711,0.68 -10.582,3.99 -11.172,7.26 0.121,3.96 6.867,1.99 10.828,1.92 4.16,0.24 6.821,0.72 7.711,-2.93 m 12.75,0.86 c 1.039,-3.05 -2.367,-4.9 -10.601,-6.96 0.953,0.79 1.332,3.69 0.293,4.39 4.378,1.22 9.218,4.56 10.308,2.57 m -27,9.18 c 0.078,-1.77 -0.48,-5.39 -3.773,-5.14 -2.559,0.82 -2.828,3.56 -1.926,6.3 1.629,-0.66 4.117,-0.95 5.699,-1.16 m 10.422,-4.21 c -2.184,-0.83 -5.473,-1.18 -7.766,-0.54 -1.476,0.11 -1.546,4.43 0.204,4.85 1.953,0.37 5.14,0.95 7.308,1.13 2.594,0.29 3.031,-4.81 0.254,-5.44 m 3.367,0.81 c 1.09,2.19 0.992,4.81 -0.941,5.76 4.094,0.75 7.152,3.84 8.57,0.96 1.832,-3.22 -2.691,-4.75 -7.629,-6.72 m 24.719,19.67 c -0.109,-4.5 -7.195,-12.84 -15.109,-16.07 1.679,1.85 0.261,5.09 -1.469,5.74 4.508,1.85 11.758,5.51 16.578,10.33 m 3.711,-5.57 c -2.551,-6.09 -7.438,-12.48 -15.649,-16.27 0.922,1.47 -0.171,4.42 -1.601,4.7 6.082,2.12 11.551,6.73 17.25,11.57 m 85.683,11.84 c 0.098,-1.75 -0.464,-5.38 -3.765,-5.13 -2.547,0.83 -2.824,3.58 -1.918,6.32 1.621,-0.66 4.121,-0.96 5.683,-1.19 m 16.708,-11.74 c 4.382,1.24 9.21,4.58 10.32,2.56 1.027,-3.04 -2.391,-4.88 -10.621,-6.94 0.953,0.8 1.332,3.69 0.301,4.38 m -0.809,2.12 c 0.57,1.35 -0.27,3.53 -1.774,4.34 3.223,0.78 8.825,4.45 10.352,2.28 2.262,-3.41 -4.961,-5.59 -8.578,-6.62 m -9,-6.65 c -7.707,0.68 -10.59,3.98 -11.18,7.25 0.121,3.96 6.879,1.99 10.84,1.94 4.16,0.22 6.828,0.7 7.707,-2.94 0.621,-4.56 -1,-6.66 -7.367,-6.25 m 3.543,12.07 c -2.195,-0.82 -5.484,-1.17 -7.777,-0.53 -1.469,0.11 -1.536,4.43 0.203,4.85 1.953,0.36 5.14,0.95 7.308,1.13 2.594,0.27 3.032,-4.81 0.266,-5.45 m 3.355,0.8 c 1.102,2.2 0.989,4.82 -0.929,5.79 4.09,0.73 7.14,3.82 8.547,0.95 1.843,-3.22 -2.68,-4.75 -7.618,-6.74 m 24.707,19.67 c -0.093,-4.48 -7.183,-12.82 -15.086,-16.06 1.668,1.86 0.25,5.11 -1.488,5.76 4.531,1.85 11.778,5.47 16.574,10.3 m 3.735,-5.56 c -2.563,-6.09 -7.438,-12.46 -15.66,-16.26 0.921,1.48 -0.172,4.43 -1.602,4.69 6.094,2.13 11.551,6.73 17.262,11.57 m 1.668,-7.52 c -1.481,-4.73 -7.809,-12.34 -14.86,-14.84 1.012,1.43 0.641,4.07 -1.269,4.6 7.597,3.72 12.691,6.85 16.129,10.24 m 9.453,-1.55 c -0.453,-10.39 -6.934,-17.09 -11.082,-18.87 6.019,-2.1 7.972,-9.49 6.93,-15.76 -3.11,6.81 -10.52,11.63 -17,9.94 2.097,-4.86 6.039,-8.81 6.097,-13.05 -3.297,6.33 -7.168,6.13 -11.289,7.07 0.879,-3.98 1.535,-6.7 2.672,-12.05 -2.32,3.83 -5.531,5.59 -11.461,6.14 2.07,-3.89 3.902,-8.28 4.754,-12.99 -4.465,9.22 -11.063,12.05 -18.703,16.43 -4.27,2.14 -9.43,5.74 -12.024,9.16 -1.277,1.99 -2.718,4.84 -2.476,7.51 -3.528,-0.83 -6.762,-0.12 -9.223,0.5 -2.637,1.18 -6.039,2.86 -4.906,5.04 -3.184,-0.95 -2.582,0.66 -4.645,1.3 2.957,1.31 3.364,6.16 7.485,9.14 3.898,2.5 8.84,2.66 11.469,0.97 4.121,-2.66 1.113,-7.84 3.339,-12.18 6.993,-19.62 52.02,-1.44 60.063,11.7 m -63.352,-39.07 c 2.153,1.87 4.032,5.51 4.328,8.74 1.575,-1.19 3.559,-2.44 5.133,-3.27 -2.64,-2.56 -6.261,-4.1 -9.461,-5.47 m 10.871,4.35 c 0.801,-0.96 2.817,-1.73 3.86,-2.41 -2.102,-3.3 -5.699,-5.28 -8.481,-6.55 2.59,3.35 4.137,5.48 4.621,8.96 m -16.23,1.1 c 1.859,1.7 5.309,4.58 5.437,7.89 0.5,-0.7 2.379,-2.86 2.93,-3.41 -1.926,-2.95 -5.43,-3.56 -8.367,-4.48 m 102.559,-33.81 c 0.113,-3.82 -2.942,-12.09 -6.481,-15.23 0.852,-6.89 -4.352,-14.16 -14.551,-15.5 3.61,4.3 2.164,13.02 -2.156,12.26 l -66.383,-11.71 c -0.25,-0.12 -0.547,-0.23 -0.918,-0.28 -10.429,-1.84 -17.574,-11.35 -16.648,-21.72 l 12.137,-68.847 c 0.761,-4.317 9.449,-2.7 12.261,2.172 2.231,-10.047 -4.832,-17.774 -11.582,-19.329 -1.758,-4.402 -6.472,-9.761 -10.109,-10.953 -3.832,-0.117 -10.09,3.301 -13.25,6.832 -6.871,-0.84 -16.156,3.996 -17.492,14.188 4.312,-3.598 13.023,-2.149 12.261,2.172 l -11.976,67.925 c -2.289,10.55 -12.555,17.52 -23.293,15.63 -0.762,-0.15 -1.528,-0.23 -2.297,-0.29 l -64.984,-11.46 c -4.309,-0.75 -2.707,-9.45 2.16,-12.25 -10.039,-2.23 -17.407,2.82 -18.969,9.58 -4.398,1.76 -12.102,8.12 -13.293,11.74 -0.117,3.84 4.934,12.46 8.473,15.61 -0.84,6.87 4.34,14.16 14.531,15.5 -3.59,-4.31 -2.141,-13.03 2.18,-12.27 l 67.257,11.86 c 10.743,1.9 18.004,11.95 16.543,22.66 l -12,68.04 c -0.754,4.31 -9.437,2.7 -12.254,-2.17 -2.23,10.03 2.833,17.41 9.59,18.97 1.746,4.4 8.465,10.1 12.102,11.31 3.832,0.11 12.09,-2.96 15.238,-6.49 6.883,0.84 14.16,-4.34 15.504,-14.54 -4.312,3.61 -13.031,2.16 -12.262,-2.17 l 12.149,-68.95 c 2.679,-10.06 12.652,-16.56 23.082,-14.71 l 67.32,11.86 c 4.313,0.76 2.699,9.45 -2.16,12.26 10.039,2.23 17.406,-2.84 18.973,-9.59 4.386,-1.75 10.093,-8.45 11.297,-12.11 M 861.711,995.395 c 0,0 -96.316,8.515 -143.789,8.515 0,0 -1.879,-11.847 -15.727,-11.847 h -20.461 -20.48 c -13.852,0 -15.719,11.847 -15.719,11.847 -47.48,0 -143.781,-8.527 -143.781,-8.527 v 225.527 l 11.281,1.03 c 0,0 31.27,33.01 31,33.19 51.078,-11.08 53.352,7.86 85.668,7.86 32.32,0 52.031,-21.71 52.031,-21.71 0,0 19.688,21.71 52.008,21.71 32.328,0 34.602,-18.94 85.68,-7.85 -0.27,-0.19 30.988,-33.2 30.988,-33.2 l 11.301,-1.03 z m 114.281,29.245 c 9.504,-0.3 19.469,-1.33 29.678,-3.12 10.2,-1.79 19.92,-4.25 28.94,-7.22 l -6.55,-35.413 -59.107,8.176 z m 8.981,7.4 10.277,58.26 c 7.12,-0.33 14.54,-1.16 22.11,-2.48 7.56,-1.34 14.81,-3.11 21.61,-5.23 l -10.27,-58.27 c -6.91,1.99 -14.15,3.66 -21.66,4.98 -7.509,1.33 -14.899,2.24 -22.067,2.74 m 70.487,164.72 -18.71,-6.03 -2.65,-14.96 12.13,-32.17 c -5.74,1.84 -11.92,3.38 -18.37,4.51 -6.33,1.12 -12.57,1.78 -18.51,2.03 l 22.1,25.2 2.42,13.71 3.79,21.54 z m 4.95,-67.88 -5.11,-28.68 -14.8,-9.16 c -6.82,2.11 -14.08,3.89 -21.66,5.21 -7.82,1.39 -15.46,2.21 -22.797,2.53 l -10.109,13.65 5.058,28.71 c 3.461,0.36 7.063,0.59 10.808,0.62 l -2.378,-13.51 c 3.358,0 6.178,-0.07 9.078,-0.25 l 2.82,13.47 c 3.42,-0.23 6.92,-0.58 10.48,-1.09 l -2.37,-13.52 4.56,-0.72 4.71,-0.92 2.38,13.51 c 3.52,-0.73 6.94,-1.58 10.25,-2.55 l -2.38,-13.52 c 3.21,-0.96 5.88,-1.85 8.47,-2.81 l 2.95,13.35 c 3.55,-1.32 6.91,-2.77 10.04,-4.32 m -0.47,-61.56 16.56,-2.93 1.96,11.16 22.17,-3.9 -1.97,-11.16 16.55,-2.91 1.97,11.15 22.17,-3.91 -1.98,-11.15 16.55,-2.92 1.99,11.15 13.83,-2.44 -10.28,-58.3 -6,1.05 -7.71,-43.733 -28.79,5.316 6.92,39.227 c 2.59,14.68 -6.02,28.55 -19.35,30.91 l -3.93,0.68 c -13.32,2.35 -26.15,-7.75 -28.75,-22.42 l -6.91,-39.221 -28.75,4.765 7.72,43.796 -6.12,1.09 10.28,58.31 13.85,-2.45 z m 77.64,18.34 -2.06,-11.62 -50.31,8.86 2.05,11.64 2.08,11.83 c 8.15,-0.2 16.71,-1.05 25.49,-2.61 8.76,-1.55 17.12,-3.67 24.83,-6.27 z m 15.23,125.19 -18.71,-6.03 -2.63,-14.95 12.12,-32.19 c -5.75,1.86 -11.92,3.38 -18.36,4.53 -6.35,1.11 -12.57,1.78 -18.53,2.02 l 22.12,25.18 2.41,13.73 3.79,21.54 z m 9.83,-70.44 -5.05,-28.31 -10.94,-7.27 c -9.2,3.46 -19.34,6.31 -30.19,8.22 -10.86,1.91 -21.36,2.72 -31.17,2.59 l -7.8,10.58 5.02,28.49 c 4.28,0.74 8.9,1.21 13.75,1.37 l -2.4,-13.51 c 3.38,0.11 6.23,0.09 9.14,-0.04 l 2.81,13.49 c 4.29,-0.19 8.72,-0.6 13.24,-1.23 l -2.37,-13.52 4.64,-0.73 4.63,-0.89 2.37,13.48 c 4.47,-0.93 8.78,-2.09 12.87,-3.4 l -2.39,-13.51 c 3.18,-1.02 5.86,-1.99 8.43,-3.03 l 2.95,13.28 c 4.51,-1.84 8.68,-3.88 12.46,-6.06 m 76.46,23.97 -18.72,-6.03 -2.64,-14.95 12.13,-32.19 c -5.76,1.86 -11.92,3.38 -18.37,4.52 -6.35,1.13 -12.57,1.78 -18.51,2.04 l 22.09,25.17 2.43,13.74 3.78,21.53 z m 4.88,-67.85 -5.05,-28.71 -14.17,-9.37 c -7.01,2.21 -14.47,4.05 -22.29,5.44 -7.58,1.32 -15,2.15 -22.14,2.49 l -10.77,13.68 5,28.69 c 3.48,0.38 7.13,0.59 10.93,0.63 l -2.4,-13.56 c 3.35,0.02 6.18,-0.05 9.09,-0.23 l 2.82,13.5 c 3.43,-0.23 6.95,-0.59 10.5,-1.11 l -2.39,-13.5 4.74,-0.77 4.53,-0.87 2.39,13.51 c 3.52,-0.74 6.94,-1.6 10.25,-2.56 l -2.39,-13.5 c 3.2,-0.95 5.89,-1.83 8.49,-2.8 l 2.92,13.31 c 3.51,-1.3 6.85,-2.75 9.94,-4.27 m -948.046,80.13 c -0.239,1.38 -1.621,2.19 -2.899,1.97 -1.242,-0.23 -2.242,-1.46 -1.965,-2.84 0.231,-1.43 1.582,-2.25 2.844,-2.06 1.328,0.27 2.238,1.54 2.02,2.93 m -1.45,-0.23 c 0.11,-0.63 -0.273,-1.14 -0.832,-1.25 -0.511,-0.07 -1.047,0.3 -1.14,0.86 -0.098,0.53 0.261,1.04 0.781,1.15 0.582,0.1 1.109,-0.3 1.191,-0.76 m -126.468,-22.32 c -0.243,1.37 -1.621,2.18 -2.891,1.95 -1.242,-0.22 -2.242,-1.45 -1.965,-2.83 0.223,-1.41 1.582,-2.25 2.844,-2.05 1.316,0.27 2.238,1.53 2.012,2.93 m -1.453,-0.24 c 0.109,-0.62 -0.262,-1.15 -0.821,-1.24 -0.512,-0.07 -1.047,0.28 -1.16,0.85 -0.09,0.51 0.281,1.06 0.789,1.15 0.582,0.1 1.121,-0.29 1.192,-0.76 m 18.257,-123.53 c 0.223,-1.41 1.582,-2.23 2.844,-2.04 1.328,0.26 2.25,1.52 2.012,2.92 -0.231,1.38 -1.613,2.19 -2.891,1.97 -1.242,-0.24 -2.23,-1.46 -1.965,-2.85 m 1.442,0.27 c -0.098,0.52 0.273,1.04 0.781,1.14 0.57,0.09 1.117,-0.29 1.191,-0.77 0.098,-0.6 -0.273,-1.11 -0.82,-1.23 -0.523,-0.09 -1.059,0.28 -1.152,0.86 m 131.343,23.16 c -0.25,1.39 -1.621,2.19 -2.91,1.98 -1.242,-0.24 -2.222,-1.46 -1.965,-2.85 0.231,-1.42 1.594,-2.24 2.852,-2.05 1.32,0.27 2.231,1.54 2.023,2.92 m -1.453,-0.23 c 0.102,-0.62 -0.269,-1.13 -0.828,-1.25 -0.523,-0.08 -1.058,0.31 -1.152,0.87 -0.098,0.52 0.273,1.04 0.793,1.14 0.57,0.09 1.105,-0.28 1.187,-0.76" /><path
         id="path80"
         style="fill:none;stroke:#ffffff;stroke-width:25.40999985;stroke-linecap:butt;stroke-linejoin:miter;stroke-miterlimit:10;stroke-dasharray:none;stroke-opacity:1"
         d="m 681.73,1338.19 c 234.106,0 581.19,-67.73 668.54,-117.23 C 1302.85,461.23 930.527,103.082 681.723,13.5 432.898,103.082 60.5977,461.23 13.1797,1220.96 c 87.3593,49.5 434.4373,117.23 668.5503,117.23 z" /><path
         id="path82"
         style="fill:none;stroke:#ffffff;stroke-width:25.40999985;stroke-linecap:butt;stroke-linejoin:miter;stroke-miterlimit:10;stroke-dasharray:none;stroke-opacity:1"
         d="m 681.727,1338.19 c 234.105,0 581.183,-67.73 668.543,-117.23 C 1302.84,461.23 930.523,103.082 681.715,13.5 432.891,103.082 60.5938,461.23 13.1758,1220.96 c 87.3592,49.5 434.4372,117.23 668.5512,117.23 z" /><path
         id="path84"
         style="fill:#ffffff;fill-opacity:1;fill-rule:nonzero;stroke:none"
         d="m 811.285,1054.39 v 187.75 c -6.601,-1.58 -28.058,-6.83 -56.39,5.02 -35.43,14.8 -64.637,-12.78 -66.629,-14.5 v -168.03 c 3.23,3.41 30.41,19.27 65.3,2.65 45.008,-21.43 57.719,-12.89 57.719,-12.89 m -15.441,138.15 c -1.461,-0.08 -3.008,-0.13 -4.614,-0.13 -10.156,-0.04 -23.066,1.69 -37.726,7.82 -19.563,8.17 -38.711,3.28 -54.719,-7.6 v 9.59 c 2.809,1.69 5.738,3.23 8.809,4.58 34.953,15.34 51.558,-6.29 83.609,-6.19 1.633,0.01 3.18,0.06 4.641,0.15 z m 0,-45.19 c -10.68,0.28 -25.34,2.5 -42.34,9.6 -23.313,9.74 -43.828,1.85 -54.719,-3.72 v 8.99 c 12.789,5.82 33.801,12.28 57.5,2.38 16.063,-6.71 29.758,-8.77 39.559,-9.04 z m 0,-46.51 c -9.59,-0.24 -23.688,1.33 -43.828,10.93 -23.313,11.09 -42.821,4.87 -53.231,0.54 v 8.72 c 12.649,4.57 32.942,9.37 56.32,-1.76 6.27,-2.99 25.946,-9.87 40.739,-10.2 v -8.23" /><path
         id="path86"
         style="fill:#ffffff;fill-opacity:1;fill-rule:nonzero;stroke:none"
         d="m 838.758,1014.12 -23.57,29 c 0,0 -15.403,-9.31 -59.633,11.81 -46.817,22.37 -67.289,-5.01 -67.289,-5.01 -1.539,-3.62 -0.864,-28.1 0,-31.44 3.347,-0.76 15.82,0 15.82,0 0.551,3.79 8.871,26.73 47.211,10.6 65.707,-27.64 87.461,-14.96 87.461,-14.96 m -21.305,17.68 4.531,-5.45 c 0,0 -29.027,-5.02 -61.621,10.43 -51.648,24.47 -60.269,-3.17 -60.269,-3.17 h -5.438 c 0,0 8.649,36.78 65.707,9.06 31.723,-15.41 57.09,-10.87 57.09,-10.87" /><path
         id="path88"
         style="fill:#ffffff;fill-opacity:1;fill-rule:nonzero;stroke:none"
         d="m 543.73,1237.97 v -186.24 l -26.152,-33.93 v 192.08 l 9.391,9.44 V 1039.5 l 5.5,7.93 v 178.51 l 11.261,12.03" /><path
         id="path90"
         style="fill:#ffffff;fill-opacity:1;fill-rule:nonzero;stroke:none"
         d="m 675.203,1049.92 c 0,0 -20.476,27.37 -67.301,5.01 -44.234,-21.12 -59.632,-11.8 -59.632,-11.8 l -23.571,-29.01 c 0,0 21.754,-12.69 87.461,14.96 38.328,16.12 46.66,-6.81 47.211,-10.6 0,0 12.477,-0.77 15.832,0 0.848,3.34 1.52,27.82 0,31.44 m -6.414,-16.31 h -5.43 c 0,0 -8.613,27.64 -60.269,3.16 -32.602,-15.44 -61.617,-10.42 -61.617,-10.42 l 4.535,5.44 c 0,0 25.359,-4.52 57.082,10.89 57.058,27.7 65.699,-9.07 65.699,-9.07" /><path
         id="path92"
         style="fill:#ffffff;fill-opacity:1;fill-rule:nonzero;stroke:none"
         d="m 819.719,1237.97 v -186.24 l 26.156,-33.93 v 192.08 l -9.391,9.44 V 1039.5 l -5.488,7.93 v 178.51 l -11.277,12.03" /><path
         id="path94"
         style="fill:#ffffff;fill-opacity:1;fill-rule:nonzero;stroke:none"
         d="m 675.203,1064.63 v 168.03 c -2.004,1.72 -31.211,29.3 -66.64,14.5 -28.34,-11.85 -49.793,-6.6 -56.391,-5.02 v -187.75 c 0,0 12.719,-8.54 57.719,12.89 34.89,16.62 62.078,0.76 65.312,-2.65 m -10.531,128 c -16.004,10.88 -35.172,15.77 -54.734,7.6 -14.657,-6.13 -27.567,-7.86 -37.711,-7.82 -1.606,0 -3.149,0.05 -4.618,0.13 v 8.22 c 1.469,-0.09 3.012,-0.14 4.649,-0.15 32.051,-0.1 48.64,21.53 83.601,6.19 3.071,-1.35 6.004,-2.89 8.813,-4.58 z m 0,-39.4 c -10.891,5.57 -31.414,13.46 -54.734,3.72 -16.997,-7.1 -31.641,-9.32 -42.329,-9.6 v 8.21 c 9.801,0.27 23.5,2.33 39.571,9.04 23.679,9.9 44.691,3.44 57.492,-2.38 z m 0,-40.92 c -10.41,4.33 -29.914,10.55 -53.242,-0.54 -20.129,-9.6 -34.231,-11.17 -43.821,-10.93 v 8.23 c 14.789,0.33 34.473,7.21 40.735,10.2 23.386,11.13 43.683,6.33 56.328,1.76 v -8.72" /><path
         id="path96"
         style="fill:#ffffff;fill-opacity:1;fill-rule:nonzero;stroke:none"
         d="m 1000.78,441.301 c 0,46.812 -290.358,44.734 -319.05,44.734 -28.691,0 -319.066,2.078 -319.066,-44.734 0,-46.797 290.43,-44.727 319.125,-44.727 28.691,0 318.991,-2.07 318.991,44.727 m -23.096,-0.547 C 956.16,430.863 897.41,423.953 832.57,420.082 c -64.906,-3.879 -129.277,-4.508 -150.84,-4.508 -14.226,0 -93.371,-0.543 -168.96,4.77 -36.997,2.578 -73.137,6.531 -100.02,12.742 -11.48,2.641 -20.098,5.469 -25.887,8.215 5.789,2.754 14.407,5.582 25.887,8.234 26.883,6.199 63.023,10.153 100.02,12.738 75.589,5.297 154.734,4.782 168.96,4.782 14.231,0 93.372,0.515 168.961,-4.782 36.981,-2.585 73.122,-6.539 100,-12.738 12.243,-2.832 21.219,-5.851 26.993,-8.781" /><path
         id="path98"
         style="fill:#ffffff;fill-opacity:1;fill-rule:nonzero;stroke:none"
         d="m 363.121,523.926 -0.57,2.097 c 6.75,4.204 16.988,8.274 30.57,11.985 28.918,7.93 67.777,12.976 107.578,16.289 80.985,6.726 165.781,6.066 181.031,6.066 15.258,0 100.047,0.66 181.02,-6.066 39.801,-3.313 78.668,-8.359 107.578,-16.289 13.512,-3.703 23.711,-7.742 30.462,-11.922 l -0.47,-2.16 c -3.879,-18.531 -8.093,-41.598 -9.769,-52.481 -9.059,4.282 -20.262,7.66 -32.391,10.473 -28.262,6.52 -66.238,10.785 -105.16,13.496 -76.621,5.371 -156.871,4.852 -171.289,4.852 -14.418,0 -94.641,0.519 -171.27,-4.852 -38.91,-2.711 -76.898,-6.976 -105.152,-13.496 -12.137,-2.813 -23.34,-6.191 -32.387,-10.473 -1.695,10.883 -5.894,33.95 -9.781,52.481" /><path
         id="path100"
         style="fill:#ffffff;fill-opacity:1;fill-rule:nonzero;stroke:none"
         d="m 1077.72,783.027 c -1.15,0.36 -2.47,-0.172 -4.05,-1.48 -17.72,-15.449 -49.07,-21.371 -55.88,-42.309 -6.68,-20.543 3.49,-41.48 7.29,-63.273 -3.98,14.055 -10.84,28.769 -28.822,33.961 -13.121,3.777 -25.664,-0.641 -32.262,-9.629 -4.07,-5.563 -4.531,-12.211 -1.223,-19.18 2.254,-4.73 8.915,-11.039 11.641,-13.379 1.441,-1.242 3.641,-0.656 3.84,0.258 2.23,10.02 16.101,14.192 26.616,9.359 7.22,-3.308 13.04,-9.14 15.74,-16.132 1.2,-3.118 2.58,-6.688 3.45,-10.02 l -10.78,3.379 c -5.4,1.715 -11.03,-1.223 -12.58,-6.535 -1.579,-5.309 1.52,-10.984 6.89,-12.684 l 3.14,-0.988 c -21.074,-22.102 -50.828,-35.871 -83.777,-35.871 -46.887,0 -87.277,27.871 -105.484,67.949 l -0.184,0.703 2.274,-0.133 c 5.734,-0.378 10.609,3.895 10.879,9.543 0.246,5.641 -4.18,10.497 -9.934,10.86 l -11.223,0.742 c 2.082,2.855 4.742,5.727 7.071,8.266 5.164,5.648 12.843,9.054 20.933,9.55 11.778,0.715 23.43,-8.379 21.852,-18.738 -0.133,-0.93 1.738,-2.301 3.558,-1.652 3.45,1.23 12.129,4.75 16.012,8.433 5.707,5.418 7.75,11.911 5.906,18.692 -2.957,10.984 -13.25,19.828 -27.129,21.07 -19.019,1.688 -30.968,-9.781 -39.961,-21.672 11.665,19.317 29.071,35.488 30.301,57.492 1.239,22.434 -26.398,39.629 -37.558,60.86 -1,1.84 -2.071,2.824 -3.114,2.898 -1.039,0.071 -2.218,-0.781 -3.445,-2.469 -13.805,-19.609 -43.434,-33.113 -45.082,-55.523 -1.621,-21.977 13.551,-40.25 22.633,-60.91 -7.387,12.949 -17.77,25.871 -36.844,26.633 -13.922,0.554 -25.258,-6.879 -29.617,-17.403 -2.692,-6.488 -1.5,-13.187 3.465,-19.289 3.375,-4.148 11.523,-8.769 14.793,-10.429 1.711,-0.883 3.761,0.242 3.726,1.187 -0.218,10.484 12.512,17.984 24.094,15.754 7.949,-1.52 15.133,-5.879 19.531,-12.148 1.969,-2.825 4.246,-6.012 5.93,-9.114 l -11.578,0.746 c -5.762,0.383 -10.629,-3.906 -10.875,-9.535 -0.278,-5.648 4.183,-10.512 9.914,-10.894 l 4.246,-0.266 c -19.535,-35.098 -57.148,-58.875 -100.496,-59.012 -42.988,0.137 -80.621,23.914 -100.133,59.012 l 4.231,0.266 c 5.738,0.382 10.191,5.246 9.918,10.894 -0.239,5.629 -5.118,9.918 -10.879,9.535 l -11.579,-0.746 c 1.692,3.102 3.973,6.289 5.93,9.114 4.399,6.269 11.582,10.628 19.531,12.148 11.586,2.23 24.317,-5.27 24.086,-15.754 -0.019,-0.945 2.032,-2.07 3.743,-1.187 3.269,1.66 11.41,6.281 14.796,10.429 4.973,6.102 6.145,12.801 3.454,19.289 -4.36,10.524 -15.688,17.957 -29.61,17.403 -19.082,-0.762 -29.461,-13.684 -36.84,-26.633 9.067,20.66 24.246,38.933 22.633,60.91 -1.652,22.41 -31.285,35.914 -45.086,55.523 -1.226,1.688 -2.406,2.54 -3.457,2.469 -1.027,-0.074 -2.097,-1.058 -3.097,-2.898 -11.165,-21.231 -38.817,-38.426 -37.567,-60.86 1.231,-22.004 18.637,-38.175 30.297,-57.492 -8.992,11.891 -20.945,23.36 -39.965,21.672 -13.871,-1.242 -24.168,-10.086 -27.129,-21.07 -1.828,-6.781 0.203,-13.274 5.918,-18.692 3.883,-3.683 12.551,-7.203 16.004,-8.433 1.813,-0.649 3.699,0.722 3.551,1.652 -1.559,10.359 10.074,19.453 21.859,18.738 8.102,-0.496 15.782,-3.902 20.926,-9.55 2.336,-2.539 5,-5.411 7.082,-8.266 l -11.226,-0.742 c -5.754,-0.363 -10.18,-5.219 -9.93,-10.86 0.277,-5.648 5.14,-9.921 10.887,-9.543 l 2.261,0.133 -0.172,-0.703 c -18.218,-40.078 -58.609,-67.949 -105.5,-67.949 -32.949,0 -62.687,13.769 -83.777,35.871 l 3.141,0.988 c 5.375,1.7 8.476,7.375 6.898,12.684 -1.543,5.312 -7.191,8.25 -12.582,6.535 l -10.777,-3.379 c 0.871,3.332 2.234,6.902 3.457,10.02 2.699,6.992 8.519,12.824 15.73,16.132 10.52,4.833 24.391,0.661 26.621,-9.359 0.203,-0.914 2.399,-1.5 3.828,-0.258 2.723,2.34 9.403,8.649 11.653,13.379 3.293,6.969 2.851,13.617 -1.223,19.18 -6.609,8.988 -19.14,13.406 -32.258,9.629 -17.98,-5.192 -24.847,-19.906 -28.847,-33.961 3.816,21.793 13.988,42.73 7.308,63.273 -6.812,20.938 -38.16,26.86 -55.879,42.309 -1.574,1.308 -2.91,1.84 -4.043,1.48 4.801,-13.339 9.981,-28.14 15.332,-43.922 -0.019,0.059 -0.039,0.133 -0.062,0.192 11.723,3.078 23.922,-3.551 27.601,-15.231 3.618,-11.48 -2.289,-23.683 -13.292,-28.082 -0.458,1.422 -0.895,2.7 -1.356,4.114 12.258,-37.903 24.656,-78.782 35.106,-117.852 l 2.32,-9.801 3.683,-15.308 c -9.382,-5.821 -14.73,-12.555 -14.73,-20.36 0,-6.382 3.578,-12.05 10.008,-17.082 -2.008,2.621 -3.082,5.18 -3.082,7.66 0,4.961 4.215,9.461 11.824,13.094 9.008,4.797 20.867,8.914 34.719,12.481 20.39,4.925 45.91,9.027 73.3,12.414 89.528,10.07 196.739,9.254 214.649,9.254 17.871,0 125.07,0.816 214.59,-9.254 27.402,-3.387 52.91,-7.489 73.301,-12.414 13.847,-3.567 25.707,-7.684 34.725,-12.481 7.59,-3.633 11.8,-8.133 11.8,-13.094 0,-2.48 -1.06,-5.039 -3.08,-7.66 6.44,5.032 10.03,10.7 10.03,17.082 0,7.805 -5.36,14.539 -14.74,20.36 l 3.67,15.308 2.34,9.801 c 10.42,38.969 22.78,79.758 35.02,117.59 -0.43,-1.32 -0.84,-2.52 -1.27,-3.852 -11.01,4.399 -16.92,16.602 -13.3,28.082 3.69,11.68 15.87,18.309 27.6,15.231 -0.07,-0.231 -0.15,-0.5 -0.24,-0.731 5.41,15.977 10.65,30.969 15.52,44.461 m -519.247,-43.3 c -12.844,-0.832 -23.93,8.91 -24.758,21.761 -0.844,12.848 8.91,23.942 21.762,24.77 12.839,0.824 23.929,-8.91 24.769,-21.762 0.828,-12.844 -8.922,-23.941 -21.773,-24.769 m 246.5,0 c -12.856,0.828 -22.598,11.925 -21.77,24.769 0.832,12.852 11.922,22.586 24.774,21.762 12.851,-0.828 22.586,-11.922 21.757,-24.77 -0.832,-12.851 -11.921,-22.593 -24.761,-21.761" /><path
         id="path102"
         style="fill:#ffffff;fill-opacity:1;fill-rule:nonzero;stroke:none"
         d="m 1017.48,1067.37 7.68,-1.37 -1.2,-6.82 -7.69,1.35 -3.96,-22.5 -7.23,1.27 3.96,22.5 -7.69,1.37 1.21,6.82 7.7,-1.35 1.36,7.74 7.21,-1.28 -1.35,-7.73" /><path
         id="path104"
         style="fill:#ffffff;fill-opacity:1;fill-rule:nonzero;stroke:none"
         d="m 1201.11,1034.98 7.69,-1.35 -1.21,-6.83 -7.69,1.35 -3.97,-22.51 -7.22,1.28 3.96,22.5 -7.68,1.36 1.2,6.83 7.69,-1.35 1.38,7.73 7.21,-1.27 -1.36,-7.74" /><path
         id="path106"
         style="fill:none;stroke:#ffffff;stroke-width:25.40999985;stroke-linecap:butt;stroke-linejoin:miter;stroke-miterlimit:10;stroke-dasharray:none;stroke-opacity:1"
         d="m 681.727,1338.19 c 234.105,0 581.183,-67.73 668.543,-117.23 C 1302.84,461.23 930.523,103.082 681.715,13.5 432.891,103.082 60.5938,461.23 13.1758,1220.96 c 87.3592,49.5 434.4372,117.23 668.5512,117.23 z" /></g></g></svg>